<?xml version="1.0" encoding="UTF-8" standalone="no"?>
<svg
   aria-hidden="true"
   role="img"
   class="iconify iconify--logos"
   width="31.88"
   height="32"
   preserveAspectRatio="xMidYMid meet"
   viewBox="0 0 256 257"
   version="1.1"
   id="svg6"
   sodipodi:docname="vite.svg"
   xml:space="preserve"
   inkscape:version="1.4.2 (f4327f4, 2025-05-13)"
   xmlns:inkscape="http://www.inkscape.org/namespaces/inkscape"
   xmlns:sodipodi="http://sodipodi.sourceforge.net/DTD/sodipodi-0.dtd"
   xmlns="http://www.w3.org/2000/svg"
   xmlns:svg="http://www.w3.org/2000/svg"><sodipodi:namedview
     id="namedview6"
     pagecolor="#ffffff"
     bordercolor="#000000"
     borderopacity="0.25"
     inkscape:showpageshadow="2"
     inkscape:pageopacity="0.0"
     inkscape:pagecheckerboard="0"
     inkscape:deskcolor="#d1d1d1"
     inkscape:zoom="9.921875"
     inkscape:cx="22.374803"
     inkscape:cy="15.470866"
     inkscape:window-width="1600"
     inkscape:window-height="837"
     inkscape:window-x="-8"
     inkscape:window-y="-8"
     inkscape:window-maximized="1"
     inkscape:current-layer="svg6" /><defs
     id="defs5"><linearGradient
       id="IconifyId1813088fe1fbc01fb466"
       x1="-.828%"
       x2="57.636%"
       y1="7.652%"
       y2="78.411%"><stop
         offset="0%"
         stop-color="#41D1FF"
         id="stop1" /><stop
         offset="100%"
         stop-color="#BD34FE"
         id="stop2" /></linearGradient><linearGradient
       id="IconifyId1813088fe1fbc01fb467"
       x1="43.376%"
       x2="50.316%"
       y1="2.242%"
       y2="89.03%"><stop
         offset="0%"
         stop-color="#FFEA83"
         id="stop3" /><stop
         offset="8.333%"
         stop-color="#FFDD35"
         id="stop4" /><stop
         offset="100%"
         stop-color="#FFA800"
         id="stop5" /></linearGradient><style
       id="style1">
      .st0 {
        fill: #020202;
      }

      .st1 {
        fill: #fff;
      }
    </style></defs><g
     id="g6"
     transform="matrix(0.17686931,0,0,0.17686931,37.442913,60.582185)"
     style="stroke-width:45.408"><g
       id="g3"
       transform="matrix(2.2500872,0,0,2.2500872,-641.47152,56.732468)"
       style="stroke-width:20.1804"
       inkscape:export-filename="g3.jpg"
       inkscape:export-xdpi="96"
       inkscape:export-ydpi="96"><path
         d="m 535.24,137.16 -21.1,-43.85 -2.69,-2.14 c -20.75,39.78 -41.05,79.82 -62.12,119.43 -7.63,14.35 -15.18,29.81 -23.16,43.81 -10.77,18.91 -30.82,31.18 -52.6,21.43 -21.12,-9.45 -20.08,-32.85 -11.7,-51.04 16.42,-35.65 39.05,-72.74 57.61,-107.79 12.97,-24.5 25.16,-52.7 39.27,-76.11 25.04,-41.55 86.2,-39.45 108.38,3.46 L 613.67,137 c 15.02,0.42 28.3,3.72 39.29,14.37 10.06,9.75 14.56,22.41 15.41,36.23 0.76,12.42 0.86,31.28 0.04,43.6 -1.82,27.16 -20.86,46.61 -48.05,48.77 H 455.77 c -8.17,-1.38 -12.31,-6.65 -11.73,-14.95 0.37,-5.35 16.25,-35.6 20.22,-40.29 3.97,-4.69 8.9,-7.88 14.92,-8.48 38.51,2.54 81.45,-3.41 119.44,-0.04 2.86,0.25 5.47,0.88 7.67,2.82 11.81,10.4 -7.46,27.54 -10.18,38.33 -0.37,1.45 -0.36,1.46 0.86,2.45 h 25.01 c 10.75,0 23.79,-13.57 25.21,-24.01 1.53,-11.29 1.35,-40.63 0.2,-52.23 -1.46,-14.75 -14.35,-25.08 -28.65,-26.22 l -108.72,-0.2 c -7.94,-1.4 -9.59,-12.41 -3.85,-17.18 1.16,-0.96 4.87,-2.8 6.08,-2.8 h 23 z m -54.46,99.24 c -6.08,5.46 -7.66,14.19 -12.36,20.75 -0.65,0.87 0.53,2.65 1.06,2.65 h 102.47 l 12.11,-21.8 -0.82,-1.6 H 480.77 Z"
         id="path1"
         style="stroke-width:20.1804" /><path
         d="m 518.9,176.09 c 7.16,-1.89 9.85,6.45 16.93,7.67 12.85,2.22 15.49,-9.44 23.98,-7.87 5.96,1.1 6.98,10.1 3.67,14.93 -10.16,14.84 -38.97,15.64 -48.13,-0.3 -2.69,-4.69 -2.83,-12.76 3.54,-14.44 z"
         id="path2"
         style="stroke-width:20.1804" /><path
         class="st1"
         d="m 480.78,236.4 h 102.47 l 0.82,1.6 -12.11,21.8 H 469.49 c -0.53,0 -1.71,-1.78 -1.06,-2.65 4.7,-6.56 6.28,-15.29 12.36,-20.75 z"
         id="path3"
         style="stroke-width:20.1804" /></g><rect
       style="fill:none;stroke:none;stroke-width:17.162;stroke-linecap:round;stroke-linejoin:bevel;paint-order:markers stroke fill"
       id="rect29"
       width="1024"
       height="768"
       x="0"
       y="0"
       rx="594.73004"
       ry="594.73004"
       inkscape:export-filename="logo-art-moment.jpg"
       inkscape:export-xdpi="96"
       inkscape:export-ydpi="96" /></g></svg>
