<?xml version="1.0" encoding="UTF-8"?>
<svg id="Layer_1" xmlns="http://www.w3.org/2000/svg" version="1.1" xmlns:xlink="http://www.w3.org/1999/xlink" viewBox="0 0 1080 1080">
  <!-- Generator: Adobe Illustrator 29.7.1, SVG Export Plug-In . SVG Version: 2.1.1 Build 8)  -->
  <defs>
    <style>
      .st0 {
        fill: url(#Degradado_sin_nombre_6);
      }

      .st1 {
        fill: #fff;
      }
    </style>
    <linearGradient id="Degradado_sin_nombre_6" data-name="Degradado sin nombre 6" x1="169.45" y1="169.45" x2="910.55" y2="910.55" gradientUnits="userSpaceOnUse">
      <stop offset="0" stop-color="#fffa00"/>
      <stop offset="1" stop-color="#ffbb36"/>
    </linearGradient>
  </defs>
  <circle class="st0" cx="540" cy="540" r="524.03"/>
  <path class="st1" d="M540.03,823.51c-23.11,0-46.31-6.67-68.92-19.84-8.99-5.23-17.65-11.04-26.31-16.86l-9.88-6.59c-7.54-4.88-15.83-7.91-26.04-9.42-3.76-.58-7.42-.81-11.04-.81-8.87,0-17.59,1.28-26.33,2.52l-13.85,1.78-4.44.19c-17.11,0-29.16-10.23-29.99-25.46-.56-10.35-2.67-14.8-21.58-16.86-11.35-1.28-22.03-5.74-30.59-9.34-14.82-6.16-24.66-14.96-30.03-26.82l-1.32-2.91v-17.63l3.58-4.19c4.94-5.74,11.39-11.9,21.87-13.95,37.86-7.52,67.08-30.19,91.9-71.38,9.44-15.66,10.11-20.31,9.98-21.55-.54-.62-4.11-3.84-22.15-10.23-3.62-1.2-5.35-1.74-7.01-2.44-8.76-3.6-18.04-7.75-26.31-14.88-11.14-9.73-15.69-22.75-12.52-35.84,3.49-14.22,15.5-25.5,31.37-29.33,3.26-.78,6.59-1.16,9.94-1.16,8.87,0,16.64,2.64,23.5,4.96,2.21.74,4.38,1.47,6.45,2.05-2.02-21.93-2.31-44.64-1.03-72.04,2.42-51.96,27.78-93.7,73.32-120.67,31.72-18.81,64.48-28.35,97.4-28.35s65,9.34,96.41,27.76c42.26,24.76,67.48,62.54,72.99,109.2,3.35,28.56,2.19,56.85.21,83.39,1.65-.5,3.26-1.01,4.86-1.51,7.21-2.25,15.36-4.84,24.45-4.84,6.63,0,12.87,1.32,19.05,4.03,15.25,6.7,24.88,20.46,24.51,34.99-.25,9.88-5.27,19.8-13.76,27.16-8.54,7.44-18.64,11.51-27.57,15.11l-10.87,4.19c-3.86,1.4-7.71,2.79-11.41,4.53-4.61,2.13-5.74,3.68-5.85,3.84.04.04,0,1.55,1.65,5.04,23.44,49.56,54.75,77.38,98.52,87.65,10.54,2.44,18.45,7.36,24.16,15.04l2.96,3.95v17.28l-1.49,3.1c-6.05,12.44-16.66,21.39-32.43,27.36-12.9,4.96-24.03,9.22-36.35,10.04-8.85.58-10.89,2.44-12.15,11.08-2,13.6-7.3,29.22-30.77,29.22-2.25,0-4.79-.12-7.61-.35-3.82-.31-7.77-.97-11.68-1.71-8.33-1.47-15.83-2.25-23.15-2.25-19.39,0-35.71,5.58-49.85,17.01-4.59,3.68-9.57,6.9-14.53,10.08-28.06,18.17-54.25,26.62-80.25,26.62Z"/>
  <path d="M539.99,271.36c29.78,0,59.61,8.54,88.89,25.72,36.81,21.59,60.57,54.28,65.73,98.1,3.36,28.52,2.02,57.08-.23,85.63-.73,9.31.52,12.91,6.38,12.91,1.94,0,4.39-.4,7.44-1.11,10.83-2.54,20.41-7.24,30.73-7.24,4.19,0,8.49.77,13.06,2.78,8.46,3.72,15.84,11.71,15.61,20.96-.16,6.33-3.85,12.16-8.62,16.31-7.31,6.37-16.84,9.9-25.7,13.49-6.88,2.79-14.02,4.95-20.72,8.09-13.83,6.48-17.8,15.04-11.33,28.72,22.4,47.35,55.32,83.31,108.57,95.79,6.5,1.52,11.7,4.18,15.65,9.45v8.92c-5.05,10.38-14.07,16.1-24.32,19.99-10.4,3.95-20.86,8.35-32.05,9.07-15.43.99-23.56,7.72-25.91,23.79-1.9,12.98-5.51,16.5-16.08,16.5-1.88,0-3.99-.11-6.35-.3-3.69-.3-7.35-.98-11-1.63-8.51-1.51-16.88-2.36-25.06-2.36-21.16,0-41.11,5.68-59.21,20.3-4.9,3.95-10.34,7.26-15.63,10.69-22.97,14.9-46.25,22.72-69.79,22.72-20.28,0-40.75-5.79-61.41-17.84-12.17-7.1-23.71-15.28-35.53-23-9.77-6.39-20.28-9.96-32.02-11.74-4.42-.67-8.81-.94-13.16-.94-13.85,0-27.4,2.77-41.1,4.28-1.22.13-2.43.21-3.63.21-7.84,0-14.65-3.08-15.1-11.4-1.26-23.08-15.4-28.72-34.81-30.85-9.04-1-17.98-4.67-26.49-8.23-9.31-3.89-17.77-9.41-22.2-19.24v-8.92c3.66-4.24,7.51-7.84,13.45-9.02,46.82-9.27,78.15-39.13,101.77-78.32,19.87-32.95,16.68-40.48-19.93-53.44-2.1-.74-4.25-1.35-6.31-2.19-7.91-3.25-15.74-6.72-22.27-12.4-16.39-14.24-6.7-34.77,12.63-39.43,2.2-.53,4.35-.76,6.47-.76,11.52,0,22.1,6.71,33.68,8.15,1.19.15,2.29.23,3.3.23,6.74,0,9.38-3.44,8.4-11.93-2.9-25.14-2.82-50.42-1.64-75.66,2.25-48.13,25.93-84.79,66.03-108.56,29.48-17.47,59.64-26.26,89.84-26.26M539.99,241.6c-35.62,0-70.96,10.23-105.01,30.42-50.04,29.66-77.9,75.57-80.58,132.77-.91,19.39-1.04,36.54-.37,52.33-4.19-.89-8.73-1.49-13.64-1.49-4.55,0-9.07.53-13.44,1.58-21.31,5.13-37.54,20.56-42.35,40.26-4.5,18.41,1.92,37.32,17.17,50.56,9.93,8.63,20.93,13.53,30.47,17.46,2,.82,4.01,1.51,6.04,2.17,4.21,1.48,7.47,2.71,10.01,3.73-1.04,1.88-2.34,4.15-3.97,6.85-22.53,37.37-48.61,57.86-82.07,64.49-16.9,3.35-26.57,14.56-30.21,18.77l-7.23,8.38v26.38l2.63,5.84c6.97,15.45,19.35,26.72,37.85,34.45,9.46,3.95,21.22,8.87,34.72,10.35,4.23.46,6.77,1.01,8.23,1.42.05.41.09.9.13,1.48,1.27,23.27,19.7,39.53,44.82,39.53,2.26,0,4.57-.13,6.89-.38,4.57-.5,9.13-1.13,13.68-1.77,8.59-1.2,16.71-2.33,24.16-2.33,2.87,0,5.77.16,8.69.61,8.12,1.23,14.54,3.53,20.2,7.22l10.33,6.86c8.72,5.84,17.45,11.66,26.49,16.94,24.91,14.53,50.62,21.89,76.4,21.89,28.92,0,57.85-9.26,85.99-27.51l2.78-1.79c5.26-3.37,10.51-6.8,15.35-10.71,11.57-9.35,24.45-13.7,40.51-13.7,6.07,0,12.75.64,19.85,1.9,5.14.92,9.48,1.64,13.83,1.99,3.23.26,6.13.4,8.73.4,17.7,0,39.79-7.06,45.3-40.45,13.98-1.14,25.81-5.67,36.28-9.69l3.02-1.15c19.48-7.39,32.74-18.77,40.53-34.81l2.99-6.16v-25.67l-5.94-7.93c-7.79-10.4-18.78-17.33-32.68-20.58-36.6-8.58-63.61-31.37-84.44-71.43,1.07-.4,2.15-.78,3.23-1.18,3.04-1.11,6.09-2.22,9.08-3.44l2.06-.83c9.58-3.85,21.5-8.65,32.01-17.8,11.62-10.11,18.48-23.97,18.83-38.02.5-20.6-12.61-39.81-33.4-48.94-7.99-3.51-16.41-5.29-25.02-5.29-4.67,0-9.06.52-13.16,1.3,1.02-21.47.99-43.16-1.6-65.21-6.06-51.47-33.8-93.06-80.22-120.29-33.72-19.78-68.69-29.81-103.95-29.81h0Z"/>
</svg>