<?xml version="1.0" encoding="UTF-8"?>
<svg id="Layer_1" xmlns="http://www.w3.org/2000/svg" version="1.1" xmlns:xlink="http://www.w3.org/1999/xlink" viewBox="0 0 1080 1080">
  <!-- Generator: Adobe Illustrator 29.7.1, SVG Export Plug-In . SVG Version: 2.1.1 Build 8)  -->
  <defs>
    <style>
      .st0 {
        fill: #fff;
      }

      .st1 {
        fill: url(#Degradado_sin_nombre_12);
      }
    </style>
    <linearGradient id="Degradado_sin_nombre_12" data-name="Degradado sin nombre 12" x1="171.78" y1="172.3" x2="907.18" y2="907.7" gradientUnits="userSpaceOnUse">
      <stop offset="0" stop-color="#2cb5e5"/>
      <stop offset=".65" stop-color="#6c6ef5"/>
      <stop offset="1" stop-color="#9146ff"/>
    </linearGradient>
  </defs>
  <circle class="st1" cx="539.48" cy="540" r="520"/>
  <path class="st0" d="M241.39,527.72s260.14-106.76,350.36-144.35c34.58-15.04,151.87-63.16,151.87-63.16,0,0,54.13-21.05,49.62,30.07-1.51,21.05-13.53,94.73-25.56,174.43-18.04,112.78-37.59,236.08-37.59,236.08,0,0-3.01,34.59-28.57,40.6-25.56,6.01-67.67-21.05-75.18-27.07-6.01-4.51-112.78-72.18-151.87-105.26-10.53-9.02-22.55-27.06,1.5-48.12,54.13-49.62,118.79-111.27,157.89-150.37,18.05-18.04,36.09-60.15-39.09-9.02-106.76,73.68-212.02,142.85-212.02,142.85,0,0-24.06,15.04-69.17,1.5-45.11-13.53-97.74-31.58-97.74-31.58,0,0-36.09-22.55,25.56-46.61h0Z"/>
</svg>