<?xml version="1.0" encoding="UTF-8"?>
<svg id="Layer_1" xmlns="http://www.w3.org/2000/svg" version="1.1" xmlns:xlink="http://www.w3.org/1999/xlink" viewBox="0 0 1080 1080">
  <!-- Generator: Adobe Illustrator 29.7.1, SVG Export Plug-In . SVG Version: 2.1.1 Build 8)  -->
  <defs>
    <style>
      .st0 {
        fill: #ff1753;
      }

      .st0, .st1, .st2 {
        fill-rule: evenodd;
      }

      .st1 {
        fill: #fff;
      }

      .st2 {
        fill: #00c9d0;
      }

      .st3 {
        fill: url(#linear-gradient);
      }
    </style>
    <linearGradient id="linear-gradient" x1="177.49" y1="177.49" x2="902.51" y2="902.51" gradientUnits="userSpaceOnUse">
      <stop offset="0" stop-color="#23004a"/>
      <stop offset=".96" stop-color="#010003"/>
      <stop offset="1" stop-color="#000"/>
    </linearGradient>
  </defs>
  <circle class="st3" cx="540" cy="540" r="512.66"/>
  <path class="st0" d="M647.37,459.9c37.24,26.6,82.86,42.26,132.13,42.26v-94.77c-9.32,0-18.62-.97-27.75-2.9v74.6c-49.27,0-94.88-15.66-132.13-42.26v193.39c0,96.75-78.46,175.17-175.25,175.17-36.11,0-69.68-10.91-97.56-29.63,31.82,32.52,76.2,52.7,125.31,52.7,96.8,0,175.27-78.42,175.27-175.17v-193.39h0ZM681.6,364.3c-19.03-20.78-31.53-47.64-34.23-77.33v-12.19h-26.3c6.62,37.73,29.19,69.98,60.53,89.52h0ZM408.02,701.53c-10.63-13.93-16.38-30.98-16.35-48.51,0-44.25,35.89-80.12,80.17-80.12,8.25,0,16.45,1.26,24.32,3.75v-96.89c-9.19-1.26-18.47-1.79-27.74-1.59v75.41c-7.87-2.49-16.08-3.76-24.33-3.75-44.28,0-80.17,35.87-80.17,80.13,0,31.29,17.94,58.38,44.1,71.58Z"/>
  <path class="st1" d="M619.62,436.83c37.25,26.6,82.86,42.26,132.13,42.26v-74.6c-27.5-5.85-51.85-20.22-70.15-40.2-31.33-19.54-53.91-51.78-60.53-89.52h-69.07v378.51c-.16,44.12-35.99,79.85-80.17,79.85-26.04,0-49.17-12.4-63.82-31.62-26.16-13.2-44.1-40.29-44.1-71.58,0-44.25,35.89-80.13,80.17-80.13,8.48,0,16.66,1.32,24.33,3.75v-75.41c-95.09,1.96-171.57,79.62-171.57,175.13,0,47.67,19.04,90.89,49.95,122.47,27.88,18.71,61.45,29.63,97.56,29.63,96.79,0,175.25-78.42,175.25-175.17v-193.39Z"/>
  <path class="st2" d="M751.75,404.5v-20.17c-24.8.04-49.11-6.91-70.15-20.03,18.62,20.38,43.15,34.44,70.15,40.2ZM621.07,274.78c-.63-3.6-1.12-7.24-1.45-10.88v-12.19h-95.37v378.51c-.15,44.12-35.98,79.85-80.17,79.85-12.98,0-25.22-3.08-36.07-8.55,14.65,19.21,37.78,31.62,63.82,31.62,44.18,0,80.02-35.73,80.17-79.85v-378.51h69.07ZM468.42,478.17v-21.48c-7.97-1.09-16-1.63-24.05-1.63-96.8,0-175.27,78.42-175.27,175.16,0,60.65,30.84,114.1,77.7,145.54-30.91-31.58-49.95-74.8-49.95-122.47,0-95.5,76.47-173.16,171.56-175.12h0Z"/>
</svg>