<?xml version="1.0" encoding="UTF-8"?>
<svg id="Layer_1" xmlns="http://www.w3.org/2000/svg" version="1.1" xmlns:xlink="http://www.w3.org/1999/xlink" viewBox="0 0 1080 1080">
  <!-- Generator: Adobe Illustrator 29.7.1, SVG Export Plug-In . SVG Version: 2.1.1 Build 8)  -->
  <defs>
    <style>
      .st0, .st1 {
        fill: #fff;
      }

      .st1 {
        fill-rule: evenodd;
      }

      .st2 {
        fill: url(#Degradado_sin_nombre_8);
      }
    </style>
    <linearGradient id="Degradado_sin_nombre_8" data-name="Degradado sin nombre 8" x1="175.88" y1="175.88" x2="904.12" y2="904.12" gradientUnits="userSpaceOnUse">
      <stop offset="0" stop-color="#00fb73"/>
      <stop offset="1" stop-color="#00b25b"/>
    </linearGradient>
  </defs>
  <circle class="st2" cx="540" cy="540" r="514.94"/>
  <g>
    <path class="st0" d="M274.86,805.79l38.11-142.2c-21.58-38.93-32.93-82.56-32.93-126.84,0-144.77,117.78-262.55,262.55-262.55s262.55,117.78,262.55,262.55-117.78,262.55-262.55,262.55c-43.46,0-86.38-10.97-124.8-31.81l-142.93,38.29ZM424.89,714.22l9,5.37c33.04,19.69,70.63,30.1,108.7,30.1,117.4,0,212.93-95.52,212.93-212.93s-95.52-212.92-212.93-212.92-212.92,95.51-212.92,212.92c0,38.77,10.77,76.94,31.14,110.4l5.52,9.07-21.27,79.39,79.84-21.4Z"/>
    <path class="st1" d="M640.26,573.27c-10.81-6.47-24.87-13.68-37.6-8.47-9.77,4-16,19.29-22.33,27.09-3.25,4.01-7.12,4.63-12.11,2.63-36.66-14.6-64.76-39.08-84.99-72.8-3.43-5.24-2.81-9.37,1.32-14.23,6.11-7.19,13.79-15.37,15.44-25.07,1.65-9.69-2.89-21.03-6.9-29.67-5.12-11.04-10.85-26.77-21.9-33.01-10.17-5.74-23.55-2.53-32.6,4.85-15.62,12.72-23.17,32.66-22.94,52.42.06,5.61.75,11.22,2.06,16.63,3.15,13.04,9.18,25.2,15.96,36.78,5.11,8.73,10.67,17.19,16.66,25.33,19.61,26.64,44.01,49.79,72.26,67.09,14.11,8.64,29.32,16.23,45.06,21.43,17.65,5.83,33.38,11.9,52.45,8.28,19.96-3.79,39.64-16.14,47.57-35.38,2.34-5.7,3.52-12.04,2.2-18.05-2.71-12.44-19.55-19.83-29.61-25.84Z"/>
  </g>
</svg>